<svg xmlns="http://www.w3.org/2000/svg" version="1.1" xmlns:xlink="http://www.w3.org/1999/xlink" xmlns:svgjs="http://svgjs.dev/svgjs" width="1440" height="560" preserveAspectRatio="none" viewBox="0 0 1440 560"><g mask="url(&quot;#SvgjsMask1645&quot;)" fill="none"><rect width="1440" height="560" x="0" y="0" fill="url(&quot;#SvgjsLinearGradient1646&quot;)"></rect><path d="M1046.8642556370964 187.48948079564997L968.8199224906795 287.3816719464954 1068.7121136415249 365.4260050929124 1146.756446787942 265.533813942067z" fill="rgba(28, 83, 142, 0.4)" class="triangle-float2"></path><path d="M440.132,384.13C477.627,383.949,519.398,377.764,537.481,344.917C555.176,312.775,536.762,275.255,517.136,244.254C499.26,216.018,473.481,193.306,440.132,191.147C402.642,188.719,363.921,201.376,343.673,233.022C321.94,266.989,319.445,311.874,341.142,345.864C361.543,377.824,402.216,384.313,440.132,384.13" fill="rgba(28, 83, 142, 0.4)" class="triangle-float2"></path><path d="M625.971836986797 1.9359495838261083L471.20767626705583 61.34434479657559 530.6160714798053 216.1085055163168 685.3802321995465 156.7001103035673z" fill="rgba(28, 83, 142, 0.4)" class="triangle-float3"></path><path d="M384.972,727.592C433.233,724.984,470.278,688.37,492.435,645.417C512.618,606.292,512.152,560.77,490.924,522.202C468.853,482.104,430.734,451.073,384.972,450.176C337.792,449.252,296.533,477.855,271.575,517.904C244.882,560.737,231.304,613.838,255.312,658.232C280.302,704.442,332.515,730.427,384.972,727.592" fill="rgba(28, 83, 142, 0.4)" class="triangle-float2"></path><path d="M1244.207,198.127C1268.766,195.856,1284.937,174.636,1296.178,152.682C1306.23,133.05,1308.356,111.011,1299.051,91.014C1287.863,66.97,1270.684,42.486,1244.207,40.993C1215.862,39.394,1191.786,59.631,1177.487,84.157C1163.068,108.888,1157.956,139.419,1172.419,164.124C1186.756,188.615,1215.949,200.74,1244.207,198.127" fill="rgba(28, 83, 142, 0.4)" class="triangle-float2"></path><path d="M1419.398,518.4C1459.321,518.852,1501.156,510.507,1523.321,477.299C1547.82,440.593,1550.715,392.436,1529.185,353.913C1507.161,314.507,1464.54,291.107,1419.398,291.359C1374.688,291.609,1333.086,315.855,1311.715,355.128C1291.203,392.822,1295.844,439.169,1319.471,474.992C1340.901,507.485,1380.477,517.96,1419.398,518.4" fill="rgba(28, 83, 142, 0.4)" class="triangle-float3"></path><path d="M39.838,277.621C69.253,277.642,96.859,263.853,112.532,238.961C129.341,212.264,136.003,177.89,119.6,150.941C103.677,124.78,70.441,118.332,39.838,119.531C11.647,120.636,-15.135,132.684,-29.786,156.794C-45.021,181.864,-47.32,213.438,-32.673,238.856C-18.006,264.309,10.462,277.6,39.838,277.621" fill="rgba(28, 83, 142, 0.4)" class="triangle-float3"></path><path d="M634.78,675.041C691.439,675.244,742.394,639.253,767.722,588.57C790.738,542.514,776.398,489.482,749.43,445.623C723.97,404.216,683.387,372.651,634.78,372.365C585.717,372.077,543.323,402.374,517.773,444.261C490.969,488.203,480.202,541.714,503.478,587.623C528.963,637.888,578.424,674.839,634.78,675.041" fill="rgba(28, 83, 142, 0.4)" class="triangle-float2"></path><path d="M498.3723620096067 276.78557665557554L583.1409198462884 412.4436267386302 718.798969929343 327.6750689019485 634.0304120926613 192.01701881889392z" fill="rgba(28, 83, 142, 0.4)" class="triangle-float3"></path></g><defs><mask id="SvgjsMask1645"><rect width="1440" height="560" fill="#ffffff"></rect></mask><linearGradient x1="15.28%" y1="-39.29%" x2="84.72%" y2="139.29%" gradientUnits="userSpaceOnUse" id="SvgjsLinearGradient1646"><stop stop-color="#0e2a47" offset="0"></stop><stop stop-color="rgba(75, 220, 182, 1)" offset="1"></stop></linearGradient><style>
                @keyframes float1 {
                    0%{transform: translate(0, 0)}
                    50%{transform: translate(-10px, 0)}
                    100%{transform: translate(0, 0)}
                }

                .triangle-float1 {
                    animation: float1 5s infinite;
                }

                @keyframes float2 {
                    0%{transform: translate(0, 0)}
                    50%{transform: translate(-5px, -5px)}
                    100%{transform: translate(0, 0)}
                }

                .triangle-float2 {
                    animation: float2 4s infinite;
                }

                @keyframes float3 {
                    0%{transform: translate(0, 0)}
                    50%{transform: translate(0, -10px)}
                    100%{transform: translate(0, 0)}
                }

                .triangle-float3 {
                    animation: float3 6s infinite;
                }
            </style></defs></svg>